<?xml version="1.0" encoding="utf-8"?>
<!-- Generator: Adobe Illustrator 27.2.0, SVG Export Plug-In . SVG Version: 6.00 Build 0)  -->
<svg version="1.1" xmlns="http://www.w3.org/2000/svg" xmlns:xlink="http://www.w3.org/1999/xlink"
	 viewBox="351.67999267578125 562.79931640625 96.30020141601562 41.75085449218758">
<g id="Layer_2">
	<path fill="#EF5023" d="M444.06,587.68h-12.48l-0.62-0.62c0.1,0.07,0.21,0.14,0.3,0.21c0.03,0.02,0.05,0.05,0.08,0.07
		c1.17-2.58,1.99-5.28,2.53-8.04c0.33-1.66,1.03-2.97,2.39-3.98c0.18-0.13,0.42-0.24,0.64-0.25c0.83-0.03,1.67,0,2.5-0.01
		c2.18-0.03,3.88-1.61,4.03-3.73c0.14-1.99-1.38-3.78-3.47-4.1c-0.33-0.05-0.67-0.05-1.03-0.08c-0.01-0.23-0.02-0.45-0.04-0.67
		c-0.17-2.07-1.88-3.64-3.99-3.68c-2.11-0.04-3.9,1.47-4.12,3.53c-0.07,0.68-0.09,1.37-0.03,2.05c0.07,0.79-0.11,1.42-0.82,1.88
		c-0.16,0.1-0.26,0.3-0.41,0.42c-0.37,0.3-0.71,0.71-1.15,0.84c-1.04,0.32-2.12,0.5-3.18,0.76c-2.87,0.7-5.73,1.45-8.39,2.75
		c-1.61,0.79-2.81,1.84-3.69,3.08c-1.17-1.01-2.39-1.76-3.66-2.2c-1.14-0.39-2.35-0.55-3.5-0.45c-0.6,0.05-1.46,0.16-2.27,0.55
		c-0.05-0.05-0.1-0.09-0.14-0.13c-0.29-0.28-0.56-0.54-0.89-0.73c-0.85-0.49-1.82-0.81-2.81-0.92c-1.89-0.2-3.89,0.36-5.49,1.55
		c-0.37,0.28-0.63,0.26-1.78-0.14c-0.84-0.29-1.87-0.65-3.11-0.52c-1.77,0.18-3.45,1.03-4.69,2.44
		c-0.03,0.03-0.05,0.06-0.08,0.09c-0.11,0-0.28-0.02-0.41-0.04c-0.6-0.07-1.51-0.18-2.45,0.34c-1.13,0.62-1.88,1.57-2.53,2.41
		c-0.15,0.19-0.3,0.38-0.45,0.57c-0.14-0.04-0.29-0.1-0.41-0.14c-0.64-0.23-1.34-0.49-2.12-0.41c-2.62,0.26-3.59,2.17-4.3,3.56
		c-0.02,0.04-0.04,0.08-0.06,0.12c-1.27-0.09-2.55,0.36-3.46,1.25c-0.65,0.65-1.02,1.49-1.15,2.37h-11.73
		c-2.17,0-3.94,1.71-3.94,3.8c0,2.1,1.77,3.8,3.94,3.8h8.59c6.81,8.83,22.67,9.25,23.39,9.27h9.48h5.5h9.51
		c0.69-0.01,16.55-0.44,23.36-9.27h8.59c2.17,0,3.94-1.71,3.94-3.8C448,589.39,446.24,587.68,444.06,587.68z M432.78,571.26
		c0.51-0.44,0.73-0.95,0.7-1.62c-0.04-0.92-0.01-1.85-0.01-2.77c0-0.86,0.55-1.43,1.36-1.43c0.8,0,1.34,0.58,1.35,1.44
		c0,0.52-0.01,1.04,0,1.56c0.02,0.79,0.53,1.32,1.35,1.36c0.57,0.03,1.14,0,1.71,0.01c0.87,0.01,1.46,0.53,1.47,1.28
		c0.01,0.78-0.59,1.33-1.46,1.34c-1.03,0.01-2.07,0.02-3.1,0c-0.53-0.01-0.95,0.16-1.31,0.53c-0.53,0.54-1.08,1.06-1.61,1.58
		c-0.67-0.65-1.29-1.25-1.96-1.89C431.76,572.2,432.25,571.71,432.78,571.26z M418.04,577.38c2.44-1.19,5.06-1.87,7.69-2.51
		c0.94-0.23,1.89-0.43,2.84-0.63c0.14-0.03,0.34,0,0.44,0.08c0.82,0.76,1.64,1.53,2.43,2.33c0.12,0.12,0.21,0.37,0.17,0.54
		c-0.58,2.68-1.26,5.34-2.27,7.91c-0.03,0.08-0.06,0.15-0.1,0.22c-0.09-0.09-0.18-0.18-0.26-0.27c-0.98-1.03-2.21-2.32-4.6-2.1
		l-2.32,0.22c-0.14-0.38-0.3-0.78-0.52-1.17c-0.53-0.93-1.28-1.58-2.17-1.9c-1.11-0.39-2.18-0.18-3.04-0.01l-0.29,0.06
		c-0.47,0.09-0.68,0.08-0.93-0.1c0.32-0.53,0.68-1.04,1.15-1.49C416.77,578.07,417.4,577.69,418.04,577.38z M370.73,587.4
		c0.31-0.31,0.84-0.44,1.27-0.31c0.2,0.06,0.73,0.22,1.33-0.01c0.62-0.24,0.9-0.73,0.98-0.88c0.18-0.31,0.34-0.63,0.5-0.95
		c0.68-1.34,1-1.82,1.78-1.9c0.14,0.01,0.54,0.15,0.77,0.24c0.84,0.3,1.89,0.68,2.88,0.13c0.48-0.27,0.78-0.63,0.99-0.87
		c0.18-0.22,0.36-0.45,0.54-0.68c0.53-0.67,1.02-1.3,1.6-1.62c0.08-0.02,0.35,0.01,0.53,0.03c0.55,0.07,1.37,0.16,2.22-0.25
		c0.5-0.24,0.81-0.6,1.09-0.92c0.65-0.73,1.59-1.21,2.58-1.31c0.52-0.05,1.09,0.14,1.74,0.37c1.17,0.4,2.94,1.01,4.71-0.31
		c0.97-0.72,2.14-1.07,3.25-0.95c0.55,0.06,1.08,0.24,1.51,0.48c0.1,0.07,0.21,0.19,0.34,0.31c0.55,0.53,1.3,1.17,2.19,1.18
		c0.64-0.01,1.12-0.27,1.51-0.48c0.12-0.06,0.43-0.18,1.18-0.25c0.71-0.06,1.46,0.04,2.19,0.29c1.1,0.38,2.19,1.11,3.25,2.17
		c0.17,0.17,0.33,0.34,0.47,0.49c0.9,0.96,2.01,2.17,4.52,1.68l0.32-0.06c0.52-0.1,1.06-0.21,1.34-0.11
		c0.17,0.06,0.37,0.26,0.53,0.54c0.19,0.33,0.32,0.74,0.47,1.18l0.09,0.28c0.05,0.17,0.22,0.69,0.76,1.03
		c0.55,0.36,1.12,0.3,1.3,0.29l3.22-0.3c0.75-0.07,1,0.07,2.02,1.14c0.2,0.21,0.41,0.41,0.61,0.62h-56.78
		C370.58,587.58,370.65,587.48,370.73,587.4z M412.08,601.56h-9.48h-5.5h-9.45c-0.14,0-12.62-0.35-19.27-6.28h62.92
		C424.67,601.21,412.19,601.56,412.08,601.56z M444.06,592.3h-88.43c-0.46,0-0.84-0.36-0.84-0.81c0-0.45,0.38-0.81,0.84-0.81
		h88.43c0.46,0,0.84,0.36,0.84,0.81C444.9,591.93,444.53,592.3,444.06,592.3z"/>
	<path fill="#EF5023" d="M424.69,581.26c0.49-0.02,0.89-0.43,0.88-0.91c-0.01-0.5-0.43-0.89-0.96-0.87c-0.5,0.02-0.9,0.42-0.89,0.9
		C423.73,580.87,424.18,581.28,424.69,581.26z"/>
	<path fill="#EF5023" d="M425.55,577.79c0.51,0.01,0.94-0.4,0.94-0.9c0-0.49-0.39-0.87-0.9-0.88c-0.5-0.01-0.92,0.36-0.94,0.84
		C424.62,577.34,425.04,577.78,425.55,577.79z"/>
	<path fill="#EF5023" d="M428.66,580.78c0.52,0.02,0.95-0.36,0.97-0.86c0.02-0.49-0.36-0.88-0.87-0.91
		c-0.53-0.03-0.96,0.35-0.97,0.86C427.77,580.34,428.16,580.75,428.66,580.78z"/>
</g>

<script>
	//document.getElementById('Layer_2').getBBox()
	//SVGRect {x: 351.67999267578125, y: 562.79931640625, width: 96.30020141601562, height: 41.7508544921875}
</script>
</svg>
